# xmcd CD database file
#
# Track frame offsets:
#	150
#	22567
#	42200
#	66825
#	91625
#	111177
#	135222
#	165695
#	187982
#	209080
#	238212
#	260595
#	285422
#	307197
#	324815
#
# Disc length: 4558 seconds
#
# Revision: 0
# Processed by: cddbd v1.5.1PL2 Copyright (c) Steve Scherf et al.
# Submitted via: CDex 1.51
#
DISCID=c511cc0f
DTITLE=Hirotaka Izumi - Sweet Memory
DYEAR=2005
DGENRE=Jazz
TTITLE0=Colors On The Street
TTITLE1=Prelude
TTITLE2=Three Swallows
TTITLE3=White Mane
TTITLE4=Blooming Hill
TTITLE5=Twilight In Upper West
TTITLE6=Takarajima
TTITLE7=Heart Land
TTITLE8=Time Remembered
TTITLE9=Sweet Sorrow
TTITLE10=Love Ballad
TTITLE11=Moon Palace
TTITLE12=Omens Of Love
TTITLE13=A lie
TTITLE14=Love Is Like Spring Rain Saying Farewell To The Winter Rain
EXTD=YEAR: 2005
EXTT0=
EXTT1=
EXTT2=
EXTT3=
EXTT4=
EXTT5=
EXTT6=
EXTT7=
EXTT8=
EXTT9=
EXTT10=
EXTT11=
EXTT12=
EXTT13=
EXTT14=
PLAYORDER=
